<svg width="29" height="25" viewBox="0 0 29 25" fill="none" xmlns="http://www.w3.org/2000/svg">
<path d="M19.5652 0.708191L24.0547 8.19962H28.8392V10.8934H27.208L26.1499 23.1272C26.1208 23.4638 25.9616 23.7776 25.7037 24.0063C25.4459 24.2351 25.1083 24.3622 24.7578 24.3624H4.9657C4.61496 24.3625 4.27699 24.2356 4.01885 24.0068C3.7607 23.778 3.60125 23.4641 3.57214 23.1272L2.51405 10.8934H0.884277V8.19962H5.66736L10.1569 0.708191L12.5778 2.05509L8.89616 8.19962H20.8259L17.1457 2.05509L19.5665 0.708191H19.5652ZM24.4014 10.8934H5.32072L6.25302 21.6686H23.4718L24.4041 10.8934H24.4014ZM16.2595 13.5872V18.9748H13.464V13.5872H16.2595ZM10.6685 13.5872V18.9748H7.87301V13.5872H10.6685ZM21.8505 13.5872V18.9748H19.055V13.5872H21.8505Z" fill="white"/>
</svg>
